<svg xmlns="http://www.w3.org/2000/svg" viewBox="0 0 24 24" width="24" height="24" fill="none">
  <rect width="24" height="24" rx="6" fill="#0077FF"/>
  <path d="M12.77 16.26s.37-.04.53-.24c.15-.18.15-.53.15-.53s-.02-1.62.73-1.86c.74-.23 1.69 1.56 2.7 2.25.76.52 1.34.4 1.34.4l2.69-.04s1.41-.09.74-1.2c-.05-.09-.39-.83-2.03-2.35-1.72-1.59-1.49-1.33.58-4.08 1.26-1.67 1.76-2.69 1.6-3.13-.15-.41-1.08-.3-1.08-.3l-3.03.02s-.23-.03-.39.07c-.16.1-.26.32-.26.32s-.47 1.25-1.09 2.31c-1.32 2.24-1.85 2.36-2.06 2.22-.5-.33-.37-1.33-.37-2.04 0-2.22.34-3.14-.65-3.38-.33-.08-.57-.13-1.4-.14-.67-.01-1.37 0-1.73.18-.24.12-.42.38-.31.39.14.02.46.09.63.32.22.3.21 .97.21 .97s.13 2.61-.3 2.94c-.29.22-.69-.23-1.55-2.28-.44-1.05-.77-2.21-.77-2.21s-.06-.16-.18-.24c-.14-.1-.34-.14-.34-.14l-2.88.02s-.43.01-.59.2c-.14.17-.01.52-.01.52s2.2 5.16 4.7 7.76c2.29 2.38 4.89 2.22 4.89 2.22h1.18z" fill="white"/>
</svg>